<svg width="33" height="13" viewBox="0 0 33 13" fill="none" xmlns="http://www.w3.org/2000/svg">
<path d="M8.464 1.568C7.504 0.719999 6.272 0.384 4.992 0.384C2.768 0.384 0.672 1.648 0.672 4.064C0.672 7.84 5.984 6.72 5.984 8.8C5.984 9.6 5.072 9.984 4.256 9.984C3.424 9.984 2.592 9.584 2.08 8.912L0.304 10.864C1.376 11.856 2.656 12.288 4.112 12.288C6.448 12.288 8.48 11.088 8.48 8.56C8.48 4.592 3.264 5.92 3.264 3.856C3.264 3.008 4.24 2.688 4.944 2.688C5.552 2.688 6.352 2.928 6.752 3.44L8.464 1.568ZM20.5955 5.28H16.1635V7.584H18.1955V9.424C17.7315 9.68 16.9315 9.984 15.8435 9.984C13.7155 9.984 12.3235 8.448 12.3235 6.336C12.3235 4.224 13.7155 2.688 15.8435 2.688C17.1075 2.688 17.9235 3.056 18.5955 3.76L20.3555 1.84C19.2195 0.783999 17.6355 0.384 15.8435 0.384C12.3075 0.384 9.7315 2.704 9.7315 6.336C9.7315 9.968 12.3075 12.288 15.8435 12.288C17.5075 12.288 19.1235 11.968 20.5955 11.2V5.28ZM26.2006 12H28.2006L32.8726 0.672H30.2006L27.3526 8.096H27.3206L24.5206 0.672H21.6726L26.2006 12Z" fill="black"/>
</svg>
